<svg width="198" height="231" viewBox="0 0 198 231" fill="none" xmlns="http://www.w3.org/2000/svg">
<g clip-path="url(#clip0)">
<path d="M93.7068 2.86709C29.086 17.3502 -11.4302 81.2375 2.85674 146.228C7.9121 169.165 18.9753 187.618 32.2365 202.028C33.9949 203.939 38.3908 208.13 38.3908 208.13L52.751 192.47C37.9512 179.237 30.4048 162.034 30.4048 162.034L22.2723 165.857C18.5357 158.064 15.7516 148.36 14.5061 142.478C2.2706 84.6928 38.6106 27.5692 96.4909 14.777C112.097 11.3217 126.31 11.3952 141.476 14.483L143.967 2.64654C127.849 -0.955854 110.631 -0.882336 93.7068 2.86709Z" fill="#D2D2D2"/>
<path d="M169.244 174.532C169.244 174.532 159.793 184.016 144.553 189.53C144.553 189.53 146.092 193.72 147.264 196.955C143.894 198.058 141.989 198.719 139.205 199.381C121.694 203.645 105.21 201.954 90.8494 196.514L93.6335 189.162C79.5664 184.016 69.6754 174.311 69.6754 174.311L64.327 180.119C52.1648 169.092 44.6916 154.535 41.3947 142.993C39.7095 137.038 39.1234 133.362 38.6106 128.804L46.45 127.995C46.45 127.995 45.5708 120.717 46.3768 112.85C47.0362 106.454 48.355 101.381 49.0144 99.2493L33.3354 94.6177C27.7672 113.512 28.8662 132.259 34.874 149.83C49.3807 192.544 97.077 220.628 145.14 206.292C152.466 204.086 158.401 201.366 163.163 198.646C168.878 195.485 174.739 191.294 180.161 186.368L169.244 174.532Z" fill="#D2D2D2"/>
<path d="M106.895 185.413L109.093 173.87C97.5898 171.738 89.2375 165.71 89.2375 165.71L86.087 170.415C73.8516 162.107 65.2062 150.345 61.323 135.935C64.1804 135.126 66.7447 134.391 66.7447 134.391C63.6676 123.363 65.2794 113.144 65.2794 113.144C65.2794 113.144 62.422 112.703 59.6379 112.409C61.3963 98.1466 68.3566 84.6193 79.7129 74.5473C81.8376 76.9734 83.4494 78.7378 83.4494 78.7378C91.2156 71.6801 101.107 68.3718 101.107 68.3718L97.1502 57.2705C67.4774 67.6366 49.3807 98.3672 53.7766 129.171C57.6597 156.226 78.1743 179.825 106.895 185.413Z" fill="#D2D2D2"/>
<path d="M146.019 119.908C146.165 134.832 134.003 146.669 119.423 146.669C116.199 146.669 111.657 145.419 109.825 144.316C110.704 144.463 115.467 145.345 120.009 144.978C125.284 144.537 130.266 142.11 133.857 139.096C133.857 139.096 139.864 134.612 141.989 126.157C142.648 123.584 142.795 121.819 142.868 119.908H138.326C138.326 123.804 136.934 128.289 133.344 131.818C131.292 133.729 128.142 135.861 123.673 136.376C118.104 136.964 114.221 134.465 114.221 134.465C116.566 135.273 119.057 135.567 121.621 135.2C129.68 134.097 134.809 127.039 134.736 120.055H131.439C131.365 126.672 126.31 131.45 120.595 131.965C116.053 132.333 111.95 130.053 109.752 126.672L104.11 130.421C108.14 136.303 114.954 140.714 124.185 139.831C126.237 139.611 127.629 139.243 129.754 138.361C129.973 138.287 130.12 138.214 130.266 138.14C128.728 139.17 125.431 141.228 120.595 141.743C112.39 142.625 105.283 139.39 100.227 132.921L94.4393 136.817C99.7878 144.904 108.873 150.271 119.35 150.271C136.055 150.271 149.535 137.038 149.535 119.981L146.019 119.908Z" fill="#D2D2D2"/>
<path d="M128.655 166.004C128.948 165.71 129.607 165.122 129.9 163.431C130.12 161.887 129.534 160.049 127.849 158.799C126.017 157.476 122.5 156.741 121.401 156.52C121.328 156.52 121.182 156.52 121.108 156.446C119.716 156.226 118.251 155.932 117.152 155.638C109.532 153.947 104.257 151.3 104.257 151.3C93.487 145.86 86.5267 136.155 84.9881 123.731C83.6693 111.674 88.6514 100.867 96.6374 93.7354L93.7068 90.4271C83.5228 99.3963 79.4199 111.527 80.4456 124.025C81.2515 133.435 86.1603 143.14 93.7068 149.83C101.4 156.593 111.73 159.093 112.023 159.167C112.829 159.387 114.807 160.049 114.441 161.887C113.855 163.945 109.019 163.063 107.554 162.622C90.4098 157.77 77.2951 142.919 75.5367 124.025C74.218 109.762 80.006 95.7204 90.4098 86.6042L87.1128 82.8547C75.1704 93.4414 69.0161 108.88 70.6279 124.981C72.7526 147.11 89.6771 164.68 110.045 168.43C109.972 168.43 124.259 171.15 128.655 166.004Z" fill="#D2D2D2"/>
</g>
<defs>
<clipPath id="clip0">
<rect width="198" height="231" fill="white"/>
</clipPath>
</defs>
</svg>
