<svg width="17" height="17" viewBox="0 0 17 17" fill="none" xmlns="http://www.w3.org/2000/svg">
<path d="M13.4583 0H3.54167C1.55833 0 0 1.55833 0 3.54167V13.4583C0 15.4417 1.55833 17 3.54167 17H13.4583C15.4417 17 17 15.4417 17 13.4583V3.54167C17 1.55833 15.4417 0 13.4583 0ZM11.3333 4.95833H9.9875C9.5625 4.95833 9.20833 5.17083 9.20833 5.59583V6.375H11.3333L11.1917 8.5H9.20833V14.1667H7.08333V8.5H5.66667V6.375H7.08333V5.02917C7.08333 3.6125 7.8625 2.83333 9.5625 2.83333H11.3333V4.95833Z" fill="black"/>
</svg>
