<svg width="17" height="17" viewBox="0 0 17 17" fill="none" xmlns="http://www.w3.org/2000/svg">
<path d="M8.5 1.55833C10.7667 1.55833 11.05 1.55833 11.9708 1.62917C14.3083 1.7 15.3708 2.83333 15.4417 5.1C15.5125 6.02083 15.5125 6.23333 15.5125 8.5C15.5125 10.7667 15.5125 11.05 15.4417 11.9C15.3708 14.1667 14.2375 15.3 11.9708 15.3708C11.05 15.4417 10.8375 15.4417 8.5 15.4417C6.23333 15.4417 5.95 15.4417 5.1 15.3708C2.7625 15.3 1.7 14.1667 1.62917 11.9C1.55833 10.9792 1.55833 10.7667 1.55833 8.5C1.55833 6.23333 1.55833 5.95 1.62917 5.1C1.7 2.83333 2.83333 1.7 5.1 1.62917C5.95 1.55833 6.23333 1.55833 8.5 1.55833ZM8.5 0C6.1625 0 5.87917 0 5.02917 0.0708333C1.9125 0.2125 0.2125 1.9125 0.0708333 5.02917C0 5.87917 0 6.1625 0 8.5C0 10.8375 0 11.1208 0.0708333 11.9708C0.2125 15.0875 1.9125 16.7875 5.02917 16.9292C5.87917 17 6.1625 17 8.5 17C10.8375 17 11.1208 17 11.9708 16.9292C15.0875 16.7875 16.7875 15.0875 16.9292 11.9708C17 11.1208 17 10.8375 17 8.5C17 6.1625 17 5.87917 16.9292 5.02917C16.7875 1.9125 15.0875 0.2125 11.9708 0.0708333C11.1208 0 10.8375 0 8.5 0ZM8.5 4.10833C6.09167 4.10833 4.10833 6.09167 4.10833 8.5C4.10833 10.9083 6.09167 12.8917 8.5 12.8917C10.9083 12.8917 12.8917 10.9083 12.8917 8.5C12.8917 6.09167 10.9083 4.10833 8.5 4.10833ZM8.5 11.3333C6.94167 11.3333 5.66667 10.0583 5.66667 8.5C5.66667 6.94167 6.94167 5.66667 8.5 5.66667C10.0583 5.66667 11.3333 6.94167 11.3333 8.5C11.3333 10.0583 10.0583 11.3333 8.5 11.3333ZM13.0333 2.975C12.4667 2.975 12.0417 3.4 12.0417 3.96667C12.0417 4.53333 12.4667 4.95833 13.0333 4.95833C13.6 4.95833 14.025 4.53333 14.025 3.96667C14.025 3.4 13.6 2.975 13.0333 2.975Z" fill="black"/>
</svg>
