<svg width="22" height="24" viewBox="0 0 22 24" fill="none" xmlns="http://www.w3.org/2000/svg">
<path d="M18.8213 7.46021L13.0198 13.2617L7.21832 7.46021" stroke="black" stroke-miterlimit="10"/>
<path d="M13.0198 13.2617V0.5" stroke="black" stroke-miterlimit="10"/>
<path d="M9.19796 22.5C10.2653 22.5 11.1305 21.6348 11.1305 20.5675C11.1305 19.5002 10.2653 18.635 9.19796 18.635C8.13066 18.635 7.26544 19.5002 7.26544 20.5675C7.26544 21.6348 8.13066 22.5 9.19796 22.5Z" stroke="black" stroke-miterlimit="10"/>
<path d="M16.9359 22.5C18.0032 22.5 18.8684 21.6348 18.8684 20.5675C18.8684 19.5002 18.0032 18.635 16.9359 18.635C15.8686 18.635 15.0034 19.5002 15.0034 20.5675C15.0034 21.6348 15.8686 22.5 16.9359 22.5Z" stroke="black" stroke-miterlimit="10"/>
<path d="M21.1623 8.21428C21.1623 8.21428 21.1623 17.8219 16.5156 17.8219L9.5279 17.8454C4.88123 17.8454 4.86945 7.82935 4.86945 7.82935H0" stroke="black" stroke-miterlimit="10"/>
</svg>
